<svg id="Capa_1" enable-background="new 0 0 512.011 512.011" height="512" viewBox="0 0 512.011 512.011" width="512" xmlns="http://www.w3.org/2000/svg"><g><g><path d="m367.275 247.647c-.327-3.794-3.261-6.846-7.042-7.291l-15.228-1.791c-2.355-12.086-7.079-23.325-13.718-33.179l9.484-12.013c2.36-2.989 2.276-7.221-.176-10.136-1.781-2.117-3.649-4.185-5.642-6.178-1.994-1.994-4.061-3.862-6.178-5.643-2.914-2.451-7.147-2.535-10.136-.176l-12.013 9.484c-9.854-6.639-21.092-11.362-33.179-13.717l-1.792-15.228c-.445-3.782-3.497-6.715-7.291-7.042-2.756-.238-5.54-.379-8.359-.379s-5.602.141-8.359.379c-3.794.327-6.846 3.261-7.291 7.042l-1.792 15.228c-12.086 2.355-23.324 7.079-33.179 13.717l-12.013-9.484c-2.989-2.359-7.221-2.276-10.136.176-2.117 1.781-4.185 3.649-6.178 5.643-1.994 1.994-3.862 4.061-5.643 6.178-2.452 2.914-2.535 7.147-.176 10.136l9.484 12.013c-6.639 9.854-11.363 21.092-13.718 33.179l-15.228 1.791c-3.782.445-6.715 3.498-7.042 7.291-.238 2.756-.379 5.539-.379 8.359 0 2.819.141 5.602.379 8.359.327 3.794 3.261 6.846 7.042 7.291l15.228 1.792c2.355 12.086 7.078 23.323 13.717 33.178l-9.484 12.013c-2.359 2.989-2.276 7.221.176 10.135 1.781 2.117 3.649 4.185 5.643 6.179 1.993 1.994 4.061 3.862 6.178 5.643 2.914 2.451 7.147 2.535 10.136.176l12.013-9.484c9.854 6.639 21.092 11.362 33.179 13.718l1.792 15.227c.445 3.782 3.497 6.716 7.291 7.043 2.756.238 5.54.379 8.359.379s5.602-.141 8.359-.379c3.794-.327 6.846-3.261 7.291-7.043l1.792-15.227c12.086-2.356 23.324-7.079 33.179-13.718l12.013 9.484c2.989 2.36 7.221 2.276 10.136-.176 2.117-1.781 4.185-3.649 6.178-5.643 1.994-1.994 3.862-4.061 5.643-6.179 2.451-2.914 2.535-7.146.176-10.135l-9.484-12.013c6.639-9.855 11.362-21.092 13.717-33.178l15.228-1.792c3.782-.445 6.715-3.497 7.042-7.291.238-2.756.379-5.54.379-8.359.001-2.82-.14-5.602-.378-8.359zm-111.269 56.208c-26.426 0-47.849-21.423-47.849-47.849s21.423-47.849 47.849-47.849 47.849 21.423 47.849 47.849-21.423 47.849-47.849 47.849z" fill="#dad8db"/><path d="m176.257 72.584h-18.041c-2.937-11.389-8.885-21.558-17.022-29.55l9.001-15.59c2.202-3.814.895-8.691-2.919-10.894l-13.813-7.975c-3.814-2.202-8.692-.895-10.894 2.919l-9.015 15.614c-5.434-1.506-11.134-2.373-17.047-2.373s-11.613.868-17.047 2.373l-9.015-15.614c-2.202-3.814-7.08-5.121-10.894-2.919l-13.811 7.975c-3.814 2.203-5.121 7.08-2.919 10.894l9.001 15.59c-8.137 7.992-14.085 18.161-17.022 29.55h-18.04c-4.405 0-7.975 3.57-7.975 7.975v15.95c0 4.404 3.57 7.975 7.975 7.975h18.041c2.937 11.389 8.884 21.558 17.021 29.55l-9 15.59c-2.202 3.815-.895 8.692 2.919 10.894l13.813 7.975c3.814 2.203 8.692.896 10.894-2.919l9.015-15.613c5.434 1.506 11.134 2.373 17.047 2.373s11.613-.868 17.047-2.373l9.015 15.613c2.202 3.815 7.08 5.122 10.894 2.919l13.813-7.975c3.814-2.202 5.121-7.079 2.919-10.894l-9-15.59c8.137-7.992 14.084-18.161 17.021-29.55h18.041c4.405 0 7.975-3.571 7.975-7.975v-15.95c-.003-4.404-3.573-7.975-7.978-7.975zm-79.748 47.849c-17.618 0-31.899-14.282-31.899-31.899 0-17.618 14.282-31.899 31.899-31.899s31.899 14.282 31.899 31.899-14.282 31.899-31.899 31.899z" fill="#7dc3ee"/><path d="m495.252 72.584h-18.041c-2.937-11.389-8.885-21.558-17.022-29.55l9.001-15.59c2.202-3.814.895-8.691-2.919-10.894l-13.813-7.975c-3.814-2.202-8.692-.895-10.894 2.919l-9.015 15.614c-5.434-1.506-11.134-2.373-17.047-2.373s-11.613.868-17.047 2.373l-9.015-15.614c-2.202-3.814-7.08-5.121-10.894-2.919l-13.813 7.975c-3.814 2.203-5.121 7.08-2.919 10.894l9.001 15.59c-8.137 7.992-14.085 18.161-17.022 29.55h-18.041c-4.405 0-7.975 3.57-7.975 7.975v15.95c0 4.404 3.57 7.975 7.975 7.975h18.041c2.937 11.389 8.884 21.558 17.021 29.55l-9 15.59c-2.202 3.815-.895 8.692 2.919 10.894l13.813 7.975c3.814 2.203 8.692.896 10.894-2.919l9.015-15.613c5.434 1.506 11.134 2.373 17.047 2.373s11.613-.868 17.047-2.373l9.015 15.613c2.202 3.815 7.08 5.122 10.894 2.919l13.813-7.975c3.814-2.202 5.121-7.079 2.919-10.894l-9-15.59c8.137-7.992 14.084-18.161 17.021-29.55h18.041c4.405 0 7.975-3.571 7.975-7.975v-15.95c-.001-4.404-3.571-7.975-7.975-7.975zm-79.749 47.849c-17.618 0-31.899-14.282-31.899-31.899 0-17.618 14.282-31.899 31.899-31.899s31.899 14.282 31.899 31.899-14.281 31.899-31.899 31.899z" fill="#e15f78"/><path d="m176.257 407.528h-18.041c-2.937-11.389-8.885-21.558-17.022-29.55l9.001-15.59c2.202-3.814.895-8.691-2.919-10.894l-13.813-7.975c-3.814-2.202-8.692-.895-10.894 2.919l-9.015 15.614c-5.434-1.505-11.134-2.373-17.047-2.373s-11.613.868-17.047 2.373l-9.015-15.614c-2.202-3.814-7.08-5.121-10.894-2.919l-13.813 7.975c-3.814 2.203-5.121 7.08-2.919 10.894l9.001 15.59c-8.137 7.992-14.085 18.161-17.022 29.55h-18.038c-4.405 0-7.975 3.57-7.975 7.975v15.95c0 4.404 3.57 7.975 7.975 7.975h18.041c2.937 11.389 8.884 21.558 17.021 29.55l-9 15.59c-2.202 3.815-.895 8.692 2.919 10.894l13.813 7.975c3.814 2.203 8.692.896 10.894-2.919l9.015-15.613c5.434 1.505 11.134 2.373 17.047 2.373s11.613-.868 17.047-2.373l9.015 15.613c2.202 3.815 7.08 5.122 10.894 2.919l13.813-7.975c3.814-2.202 5.121-7.079 2.919-10.894l-9-15.59c8.137-7.992 14.084-18.161 17.021-29.55h18.041c4.405 0 7.975-3.571 7.975-7.975v-15.95c-.003-4.404-3.573-7.975-7.978-7.975zm-79.748 47.85c-17.618 0-31.899-14.282-31.899-31.899 0-17.618 14.282-31.899 31.899-31.899s31.899 14.282 31.899 31.899c0 17.616-14.282 31.899-31.899 31.899z" fill="#d6bdef"/><path d="m495.252 407.528h-18.041c-2.937-11.389-8.885-21.558-17.022-29.55l9.001-15.59c2.202-3.814.895-8.691-2.919-10.894l-13.813-7.975c-3.814-2.202-8.692-.895-10.894 2.919l-9.015 15.614c-5.434-1.505-11.134-2.373-17.047-2.373s-11.613.868-17.047 2.373l-9.015-15.614c-2.202-3.814-7.08-5.121-10.894-2.919l-13.813 7.975c-3.814 2.203-5.121 7.08-2.919 10.894l9.001 15.59c-8.137 7.992-14.085 18.161-17.022 29.55h-18.041c-4.405 0-7.975 3.57-7.975 7.975v15.95c0 4.404 3.57 7.975 7.975 7.975h18.041c2.937 11.389 8.884 21.558 17.021 29.55l-9 15.59c-2.202 3.815-.895 8.692 2.919 10.894l13.813 7.975c3.814 2.203 8.692.896 10.894-2.919l9.015-15.613c5.434 1.505 11.134 2.373 17.047 2.373s11.613-.868 17.047-2.373l9.015 15.613c2.202 3.815 7.08 5.122 10.894 2.919l13.813-7.975c3.814-2.202 5.121-7.079 2.919-10.894l-9-15.59c8.137-7.992 14.084-18.161 17.021-29.55h18.041c4.405 0 7.975-3.571 7.975-7.975v-15.95c-.001-4.404-3.571-7.975-7.975-7.975zm-79.749 47.85c-17.618 0-31.899-14.282-31.899-31.899 0-17.618 14.282-31.899 31.899-31.899s31.899 14.282 31.899 31.899c0 17.616-14.281 31.899-31.899 31.899z" fill="#afefa5"/><path d="m96.509 120.433c-17.618 0-31.899-14.282-31.899-31.899 0-8.913 3.673-16.952 9.566-22.74l-22.352-22.76c-8.137 7.992-14.085 18.161-17.022 29.55h-18.042c-4.404 0-7.975 3.57-7.975 7.975v15.95c0 4.404 3.571 7.975 7.975 7.975h18.041c2.937 11.389 8.884 21.558 17.021 29.55l-9 15.59c-2.202 3.815-.895 8.692 2.92 10.894l13.812 7.975c3.814 2.203 8.692.896 10.894-2.919l9.015-15.613c5.434 1.506 11.134 2.373 17.047 2.373s11.613-.868 17.047-2.373l9.015 15.613c2.202 3.815 7.08 5.122 10.894 2.919l13.812-7.975c3.814-2.202 5.122-7.079 2.92-10.894l-9-15.59-22.353-22.76c-5.758 5.653-13.631 9.159-22.336 9.159z" fill="#64acdc"/><path d="m415.503 120.433c-17.618 0-31.899-14.282-31.899-31.899 0-8.913 3.673-16.952 9.566-22.74l-22.352-22.76c-8.137 7.992-14.085 18.161-17.022 29.55h-18.041c-4.404 0-7.975 3.57-7.975 7.975v15.95c0 4.404 3.571 7.975 7.975 7.975h18.041c2.937 11.389 8.884 21.558 17.021 29.55l-9 15.59c-2.202 3.815-.895 8.692 2.919 10.894l13.812 7.975c3.814 2.203 8.692.896 10.894-2.919l9.015-15.613c5.434 1.506 11.134 2.373 17.047 2.373s11.613-.868 17.047-2.373l9.015 15.613c2.202 3.815 7.08 5.122 10.894 2.919l13.812-7.975c3.814-2.202 5.122-7.079 2.919-10.894l-9-15.59-22.353-22.76c-5.756 5.653-13.63 9.159-22.335 9.159z" fill="#db4655"/><path d="m96.509 455.378c-17.618 0-31.899-14.282-31.899-31.899 0-8.913 3.673-16.952 9.566-22.74l-22.352-22.76c-8.137 7.992-14.085 18.161-17.022 29.55h-18.042c-4.404 0-7.975 3.57-7.975 7.975v15.95c0 4.404 3.571 7.975 7.975 7.975h18.041c2.937 11.389 8.884 21.558 17.021 29.55l-9 15.59c-2.202 3.815-.895 8.692 2.92 10.894l13.812 7.975c3.814 2.203 8.692.896 10.894-2.919l9.015-15.613c5.434 1.505 11.134 2.373 17.047 2.373s11.613-.868 17.047-2.373l9.015 15.613c2.202 3.815 7.08 5.122 10.894 2.919l13.812-7.975c3.814-2.202 5.122-7.079 2.92-10.894l-9-15.59-22.353-22.76c-5.758 5.652-13.631 9.159-22.336 9.159z" fill="#c3aff0"/><path d="m415.503 455.378c-17.618 0-31.899-14.282-31.899-31.899 0-8.913 3.673-16.952 9.566-22.74l-22.352-22.76c-8.137 7.992-14.085 18.161-17.022 29.55h-18.041c-4.404 0-7.975 3.57-7.975 7.975v15.95c0 4.404 3.571 7.975 7.975 7.975h18.041c2.937 11.389 8.884 21.558 17.021 29.55l-9 15.59c-2.202 3.815-.895 8.692 2.919 10.894l13.812 7.975c3.814 2.203 8.692.896 10.894-2.919l9.015-15.613c5.434 1.505 11.134 2.373 17.047 2.373s11.613-.868 17.047-2.373l9.015 15.613c2.202 3.815 7.08 5.122 10.894 2.919l13.812-7.975c3.814-2.202 5.122-7.079 2.919-10.894l-9-15.59-22.353-22.76c-5.756 5.652-13.63 9.159-22.335 9.159z" fill="#8ce1a4"/><path d="m331.288 306.626c1.491-2.214 2.852-4.52 4.145-6.868-4.108-3.472-9.196-5.455-14.628-5.455-6.285 0-12.377 2.632-16.712 7.223-12.647 13.394-29.725 20.771-48.088 20.771-4.044 0-8.159-.368-12.231-1.093-26.467-4.714-48.248-26.493-52.966-52.96-4.047-22.709 3.125-44.697 19.676-60.325 4.567-4.312 7.132-10.131 7.221-16.383.08-5.557-1.906-10.759-5.455-14.954-2.346 1.293-4.652 2.653-6.865 4.144l-12.014-9.484c-2.989-2.359-7.221-2.276-10.135.176-2.117 1.781-4.185 3.649-6.178 5.643-1.994 1.994-3.863 4.061-5.643 6.178-2.452 2.914-2.536 7.147-.176 10.136l9.485 12.013c-6.639 9.854-11.363 21.092-13.717 33.179l-15.228 1.791c-3.782.445-6.715 3.498-7.042 7.291-.238 2.756-.379 5.539-.379 8.359 0 2.819.141 5.602.379 8.359.327 3.794 3.26 6.846 7.042 7.291l15.228 1.792c2.355 12.086 7.077 23.323 13.717 33.178l-9.484 12.013c-2.36 2.989-2.276 7.221.175 10.135 1.781 2.117 3.65 4.185 5.644 6.179 1.993 1.994 4.06 3.862 6.178 5.643 2.914 2.451 7.146 2.535 10.135.176l12.014-9.484c9.854 6.639 21.092 11.362 33.179 13.718l1.791 15.227c.445 3.782 3.497 6.716 7.291 7.043 2.756.238 5.539.379 8.358.379s5.602-.141 8.358-.379c3.795-.327 6.847-3.261 7.291-7.043l1.791-15.227c12.087-2.356 23.325-7.079 33.179-13.718l12.014 9.484c2.989 2.36 7.221 2.276 10.135-.176 2.117-1.781 4.185-3.649 6.179-5.643s3.862-4.061 5.643-6.179c2.451-2.914 2.535-7.146.175-10.135z" fill="#c8c5c9"/></g><g><path d="m16.76 111.983h12.478c2.949 8.486 7.466 16.33 13.31 23.112l-6.223 10.778c-4.266 7.39-1.724 16.873 5.665 21.138l13.812 7.975c3.58 2.067 7.75 2.615 11.743 1.546 3.993-1.07 7.33-3.631 9.396-7.21l6.23-10.791c8.913 1.729 17.759 1.729 26.672 0l6.23 10.791c2.066 3.58 5.404 6.141 9.396 7.21 1.333.357 2.687.534 4.031.534 2.681 0 5.328-.703 7.712-2.08l13.813-7.975c7.39-4.267 9.93-13.75 5.664-21.139l-6.222-10.777c5.845-6.783 10.36-14.625 13.31-23.112h12.479c8.533 0 15.475-6.942 15.475-15.475v-15.95c0-8.533-6.942-15.475-15.475-15.475h-12.479c-2.949-8.487-7.466-16.33-13.31-23.112l6.222-10.777c4.266-7.389 1.725-16.872-5.664-21.139l-13.813-7.975c-3.579-2.067-7.749-2.617-11.742-1.546-3.993 1.069-7.331 3.63-9.397 7.21l-6.23 10.791c-8.913-1.729-17.759-1.729-26.672 0l-6.23-10.791c-2.066-3.58-5.404-6.141-9.396-7.21-3.993-1.07-8.163-.521-11.743 1.546l-13.812 7.975c-7.388 4.267-9.93 13.749-5.664 21.139l6.222 10.778c-5.844 6.782-10.36 14.625-13.31 23.112h-12.478c-8.533 0-15.475 6.942-15.475 15.475v15.95c0 8.533 6.942 15.474 15.475 15.474zm-.475-31.424c0-.262.213-.475.475-.475h18.041c3.421 0 6.408-2.315 7.262-5.627 2.559-9.922 7.75-18.938 15.015-26.073 2.439-2.396 2.949-6.139 1.239-9.101l-9-15.588c-.131-.228-.053-.519.174-.65l13.812-7.975c.042-.024.17-.099.361-.047.189.051.264.179.288.221l9.015 15.614c1.709 2.96 5.202 4.393 8.498 3.478 5.033-1.394 10.095-2.101 15.044-2.101s10.011.707 15.044 2.101c3.294.914 6.789-.517 8.498-3.478l9.014-15.614c.024-.042.099-.17.289-.221.193-.052.318.023.36.047l13.812 7.974c.228.131.306.423.175.649l-9 15.589c-1.71 2.961-1.2 6.705 1.24 9.101 7.264 7.135 12.455 16.15 15.014 26.073.854 3.312 3.841 5.627 7.262 5.627h18.041c.262 0 .475.213.475.475v15.95c0 .262-.213.475-.475.475h-18.041c-3.421 0-6.408 2.315-7.262 5.627-2.559 9.922-7.75 18.938-15.014 26.072-2.44 2.396-2.95 6.139-1.24 9.101l9 15.589c.131.227.053.518-.174.649l-13.814 7.975c-.042.024-.167.099-.359.047-.19-.051-.264-.179-.289-.221l-9.014-15.613c-1.709-2.96-5.201-4.39-8.498-3.478-5.033 1.395-10.095 2.102-15.044 2.102s-10.011-.707-15.044-2.102c-3.294-.912-6.788.518-8.498 3.478l-9.015 15.613c-.024.042-.099.17-.289.222-.187.05-.317-.023-.36-.048l-13.812-7.975c-.227-.131-.305-.422-.174-.649l9-15.589c1.71-2.961 1.2-6.704-1.239-9.101-7.264-7.135-12.456-16.151-15.015-26.072-.854-3.312-3.841-5.627-7.262-5.627h-18.041c-.262 0-.475-.213-.475-.475z"/><path d="m96.509 127.933c21.725 0 39.399-17.674 39.399-39.399 0-3.335-.419-6.651-1.245-9.855-1.034-4.011-5.126-6.424-9.135-5.391-4.011 1.034-6.424 5.124-5.391 9.135.511 1.982.77 4.038.77 6.111 0 13.454-10.945 24.399-24.399 24.399s-24.399-10.945-24.399-24.399 10.945-24.399 24.399-24.399c2.07 0 4.125.259 6.109.769 4.008 1.033 8.1-1.382 9.132-5.394 1.033-4.011-1.382-8.1-5.394-9.132-3.203-.825-6.517-1.243-9.847-1.243-21.725 0-39.399 17.674-39.399 39.399s17.675 39.399 39.4 39.399z"/><path d="m495.251 65.084h-12.478c-2.95-8.487-7.466-16.33-13.31-23.112l6.223-10.779c4.265-7.389 1.724-16.872-5.665-21.138l-13.812-7.975c-3.581-2.067-7.751-2.617-11.743-1.546-3.993 1.069-7.33 3.63-9.396 7.21l-6.23 10.791c-8.913-1.729-17.759-1.729-26.672 0l-6.23-10.791c-2.066-3.58-5.404-6.141-9.397-7.21-3.993-1.071-8.163-.521-11.742 1.546l-13.814 7.975c-7.388 4.267-9.929 13.75-5.663 21.139l6.222 10.777c-5.844 6.782-10.361 14.625-13.31 23.112h-12.479c-8.533 0-15.475 6.942-15.475 15.475v15.95c0 8.533 6.942 15.475 15.475 15.475h12.479c2.95 8.488 7.465 16.33 13.31 23.112l-6.222 10.777c-4.266 7.39-1.726 16.873 5.664 21.139l13.812 7.974c2.385 1.377 5.031 2.081 7.713 2.081 1.344 0 2.697-.177 4.03-.534 3.993-1.07 7.33-3.631 9.396-7.21l6.23-10.791c8.913 1.729 17.759 1.729 26.672 0l6.23 10.791c2.066 3.58 5.404 6.141 9.396 7.21 3.992 1.068 8.163.521 11.743-1.546l13.812-7.975c7.389-4.266 9.931-13.749 5.665-21.139l-6.222-10.778c5.844-6.782 10.361-14.625 13.31-23.112h12.478c8.533 0 15.475-6.942 15.475-15.475v-15.95c0-8.531-6.941-15.473-15.475-15.473zm.475 31.425c0 .262-.213.475-.475.475h-18.041c-3.421 0-6.408 2.315-7.262 5.627-2.559 9.921-7.75 18.937-15.015 26.072-2.439 2.396-2.949 6.139-1.239 9.101l9 15.588c.131.228.053.519-.174.65l-13.813 7.975c-.042.024-.173.096-.36.048-.19-.051-.264-.179-.289-.222l-9.015-15.613c-1.364-2.363-3.865-3.75-6.495-3.75-.665 0-1.338.088-2.003.272-5.033 1.395-10.095 2.102-15.044 2.102s-10.011-.707-15.044-2.102c-3.294-.912-6.789.518-8.498 3.478l-9.014 15.613c-.024.042-.099.17-.289.221-.191.052-.318-.022-.36-.047l-13.813-7.975c-.227-.131-.305-.422-.174-.649l9-15.589c1.71-2.961 1.2-6.705-1.24-9.101-7.264-7.135-12.456-16.15-15.014-26.072-.854-3.312-3.841-5.627-7.262-5.627h-18.041c-.262 0-.475-.213-.475-.475v-15.95c0-.262.213-.475.475-.475h18.041c3.421 0 6.408-2.315 7.262-5.627 2.559-9.922 7.75-18.938 15.014-26.073 2.44-2.396 2.95-6.139 1.24-9.101l-9-15.589c-.131-.227-.053-.518.174-.649l13.813-7.975c.042-.025.168-.1.36-.047.19.051.264.179.289.221l9.014 15.614c1.709 2.96 5.204 4.392 8.498 3.478 5.033-1.394 10.095-2.101 15.044-2.101s10.011.707 15.044 2.101c3.295.914 6.789-.517 8.498-3.478l9.015-15.614c.024-.042.099-.17.288-.221.19-.051.318.023.361.047l13.812 7.975c.227.131.305.422.175.649l-9 15.589c-1.71 2.961-1.2 6.704 1.239 9.101 7.264 7.135 12.456 16.151 15.015 26.073.854 3.312 3.841 5.627 7.262 5.627h18.041c.262 0 .475.213.475.475z"/><path d="m444.524 73.288c-4.011 1.033-6.425 5.123-5.392 9.134.511 1.982.77 4.039.77 6.112 0 13.454-10.945 24.399-24.399 24.399s-24.399-10.945-24.399-24.399 10.945-24.399 24.399-24.399c2.07 0 4.125.259 6.109.769 4.01 1.033 8.1-1.382 9.132-5.394 1.033-4.011-1.382-8.1-5.394-9.132-3.203-.825-6.517-1.243-9.847-1.243-21.725 0-39.399 17.674-39.399 39.399s17.674 39.399 39.399 39.399 39.399-17.674 39.399-39.399c0-3.334-.418-6.65-1.244-9.854-1.034-4.012-5.124-6.425-9.134-5.392z"/><path d="m176.257 400.028h-12.479c-2.949-8.487-7.466-16.331-13.31-23.112l6.222-10.778c4.267-7.389 1.726-16.872-5.664-21.139l-13.813-7.975c-7.389-4.267-16.873-1.726-21.139 5.664l-6.23 10.792c-8.912-1.729-17.76-1.729-26.672 0l-6.23-10.792c-4.267-7.39-13.75-9.93-21.139-5.664l-13.812 7.976c-7.389 4.266-9.931 13.749-5.665 21.139l6.222 10.778c-5.845 6.783-10.36 14.625-13.31 23.112h-12.478c-8.533 0-15.475 6.942-15.475 15.475v15.95c0 8.533 6.942 15.475 15.475 15.475h12.478c2.95 8.487 7.466 16.33 13.31 23.112l-6.223 10.779c-4.265 7.39-1.724 16.872 5.665 21.138l13.812 7.975c3.58 2.067 7.75 2.616 11.743 1.546 3.993-1.069 7.33-3.63 9.396-7.21l6.23-10.791c8.911 1.729 17.76 1.729 26.672 0l6.23 10.791c2.066 3.58 5.404 6.141 9.397 7.21 1.333.357 2.686.534 4.03.534 2.682 0 5.328-.704 7.712-2.08l13.813-7.975c7.389-4.267 9.93-13.749 5.664-21.139l-6.222-10.778c5.844-6.782 10.361-14.625 13.31-23.112h12.479c8.533 0 15.475-6.942 15.475-15.475v-15.95c.001-8.534-6.941-15.476-15.474-15.476zm.475 31.425c0 .262-.213.475-.475.475h-18.041c-3.421 0-6.408 2.315-7.262 5.627-2.559 9.922-7.75 18.938-15.014 26.072-2.439 2.396-2.95 6.139-1.24 9.101l9 15.59c.131.227.053.518-.174.648l-13.813 7.975c-.042.025-.168.1-.36.047-.19-.051-.264-.179-.289-.221l-9.014-15.614c-1.364-2.363-3.865-3.75-6.495-3.75-.665 0-1.338.088-2.003.273-5.031 1.394-10.093 2.101-15.044 2.101s-10.013-.707-15.044-2.101c-3.293-.914-6.789.517-8.498 3.478l-9.015 15.614c-.024.042-.099.17-.288.221-.19.052-.319-.023-.361-.047l-13.812-7.975c-.227-.131-.305-.422-.174-.648l9-15.59c1.71-2.961 1.2-6.705-1.24-9.101-7.264-7.135-12.456-16.15-15.014-26.072-.854-3.312-3.841-5.627-7.262-5.627h-18.04c-.262 0-.475-.213-.475-.475v-15.95c0-.262.213-.475.475-.475h18.041c3.421 0 6.408-2.315 7.262-5.627 2.559-9.922 7.75-18.938 15.014-26.072 2.44-2.396 2.95-6.139 1.24-9.101l-9-15.589c-.131-.227-.053-.518.174-.649l13.812-7.975c.228-.13.518-.053.649.174l9.015 15.614c1.709 2.96 5.204 4.393 8.498 3.478 5.031-1.394 10.093-2.101 15.044-2.101s10.013.707 15.044 2.101c3.294.915 6.79-.517 8.498-3.478l9.014-15.614c.131-.227.421-.304.649-.174l13.813 7.975c.227.131.305.422.174.648l-9 15.59c-1.71 2.961-1.2 6.705 1.24 9.101 7.264 7.134 12.455 16.15 15.014 26.072.854 3.312 3.841 5.627 7.262 5.627h18.041c.262 0 .475.213.475.475v15.949z"/><path d="m125.529 408.233c-4.011 1.034-6.424 5.124-5.391 9.135.511 1.982.77 4.038.77 6.111 0 13.454-10.945 24.399-24.399 24.399s-24.399-10.945-24.399-24.399 10.945-24.399 24.399-24.399c2.072 0 4.126.259 6.107.769 4.009 1.032 8.1-1.381 9.134-5.393 1.033-4.011-1.381-8.101-5.393-9.134-3.202-.825-6.516-1.243-9.849-1.243-21.725 0-39.399 17.674-39.399 39.399s17.674 39.399 39.399 39.399 39.399-17.674 39.399-39.399c0-3.335-.419-6.651-1.245-9.855-1.033-4.011-5.125-6.424-9.133-5.39z"/><path d="m495.251 400.028h-12.478c-2.95-8.488-7.465-16.33-13.31-23.112l6.223-10.778c4.266-7.39 1.724-16.872-5.665-21.138l-13.812-7.975c-7.39-4.267-16.873-1.726-21.139 5.664l-6.23 10.792c-8.912-1.729-17.76-1.729-26.672 0l-6.23-10.792c-4.267-7.391-13.749-9.93-21.139-5.664l-13.814 7.975c-7.39 4.267-9.931 13.75-5.664 21.139l6.222 10.778c-5.844 6.782-10.361 14.625-13.31 23.112h-12.479c-8.533 0-15.475 6.942-15.475 15.475v15.95c0 8.533 6.942 15.475 15.475 15.475h12.479c2.949 8.487 7.466 16.33 13.31 23.112l-6.222 10.778c-4.266 7.39-1.725 16.872 5.664 21.139l13.813 7.975c2.384 1.377 5.031 2.08 7.712 2.08 1.344 0 2.697-.177 4.03-.534 3.993-1.069 7.331-3.63 9.397-7.21l6.23-10.791c8.912 1.729 17.761 1.729 26.672 0l6.23 10.791c2.066 3.58 5.404 6.141 9.396 7.21 3.993 1.071 8.163.521 11.743-1.546l13.812-7.975c7.389-4.266 9.93-13.748 5.665-21.139l-6.222-10.778c5.844-6.782 10.36-14.625 13.31-23.112h12.478c8.533 0 15.475-6.942 15.475-15.475v-15.95c0-8.534-6.941-15.476-15.475-15.476zm.475 31.425c0 .262-.213.475-.475.475h-18.041c-3.421 0-6.408 2.315-7.262 5.627-2.559 9.922-7.75 18.938-15.014 26.072-2.44 2.396-2.95 6.139-1.24 9.101l9 15.589c.131.227.053.519-.174.649l-13.812 7.975c-.042.024-.171.099-.361.047-.189-.051-.264-.179-.288-.221l-9.015-15.614c-1.709-2.96-5.204-4.391-8.498-3.478-5.031 1.394-10.093 2.101-15.044 2.101s-10.013-.707-15.044-2.101c-3.292-.914-6.789.517-8.498 3.478l-9.014 15.614c-.024.042-.099.17-.289.221-.192.052-.318-.022-.36-.047l-13.813-7.975c-.227-.131-.305-.422-.174-.648l9-15.59c1.71-2.961 1.2-6.705-1.24-9.101-7.264-7.134-12.455-16.15-15.014-26.072-.854-3.312-3.841-5.627-7.262-5.627h-18.041c-.262 0-.475-.213-.475-.475v-15.95c0-.262.213-.475.475-.475h18.041c3.421 0 6.408-2.315 7.262-5.627 2.559-9.922 7.75-18.938 15.014-26.072 2.439-2.396 2.95-6.139 1.24-9.101l-9-15.59c-.131-.227-.053-.518.174-.648l13.813-7.975c.228-.13.518-.053.649.174l9.014 15.614c1.709 2.96 5.204 4.393 8.498 3.478 5.031-1.394 10.093-2.101 15.044-2.101s10.013.707 15.044 2.101c3.293.915 6.79-.517 8.498-3.478l9.015-15.614c.131-.227.421-.304.649-.174l13.812 7.975c.227.131.305.422.174.648l-9 15.59c-1.71 2.961-1.2 6.705 1.24 9.101 7.264 7.135 12.456 16.15 15.014 26.072.854 3.312 3.841 5.627 7.262 5.627h18.041c.262 0 .475.213.475.475z"/><path d="m444.524 408.233c-4.011 1.033-6.425 5.123-5.392 9.134.511 1.982.77 4.039.77 6.112 0 13.454-10.945 24.399-24.399 24.399s-24.399-10.945-24.399-24.399 10.945-24.399 24.399-24.399c2.072 0 4.126.259 6.107.769 4.008 1.032 8.101-1.381 9.134-5.393 1.033-4.011-1.381-8.101-5.393-9.134-3.202-.825-6.516-1.243-9.849-1.243-21.725 0-39.399 17.674-39.399 39.399s17.674 39.399 39.399 39.399 39.399-17.674 39.399-39.399c0-3.334-.418-6.65-1.244-9.854-1.033-4.012-5.123-6.425-9.133-5.391z"/><path d="m328.18 350.67c4.804-3.67 8.642-6.979 12.076-10.413s6.743-7.271 10.413-12.077c2.081-2.724 2.05-6.51-.073-9.2l-10.13-12.832c4.799-8.067 8.382-16.734 10.694-25.873l16.261-1.913c3.403-.4 6.103-3.057 6.557-6.454.802-5.993 1.176-11.046 1.176-15.902s-.374-9.909-1.176-15.902c-.455-3.396-3.154-6.053-6.557-6.454l-16.261-1.913c-2.312-9.139-5.895-17.806-10.694-25.874l10.13-12.832c2.124-2.69 2.154-6.477.073-9.2-3.671-4.806-6.98-8.644-10.413-12.076-3.43-3.43-7.267-6.739-12.076-10.413-2.722-2.081-6.51-2.051-9.201.073l-12.832 10.13c-8.067-4.799-16.734-8.382-25.874-10.694l-1.913-16.26c-.4-3.404-3.057-6.103-6.454-6.558-5.993-.802-11.046-1.176-15.902-1.176s-9.909.374-15.902 1.176c-3.397.455-6.054 3.154-6.454 6.558l-1.913 16.26c-9.139 2.312-17.806 5.895-25.874 10.694l-12.832-10.13c-2.69-2.123-6.478-2.154-9.201-.073-4.809 3.674-8.646 6.982-12.076 10.413-3.433 3.433-6.742 7.27-10.413 12.076-2.081 2.723-2.05 6.51.073 9.2l10.13 12.832c-4.799 8.067-8.382 16.734-10.694 25.874l-16.261 1.913c-3.403.4-6.103 3.057-6.557 6.454-.802 5.993-1.176 11.046-1.176 15.902s.374 9.909 1.176 15.902c.455 3.397 3.154 6.054 6.557 6.454l16.261 1.913c2.312 9.139 5.895 17.806 10.694 25.873l-10.13 12.832c-2.124 2.69-2.154 6.477-.073 9.2 3.67 4.806 6.979 8.643 10.414 12.077s7.271 6.743 12.076 10.413c2.723 2.08 6.51 2.051 9.2-.073l12.832-10.13c8.067 4.799 16.734 8.382 25.874 10.694l1.913 16.26c.4 3.404 3.057 6.103 6.454 6.558 5.993.802 11.046 1.176 15.902 1.176s9.909-.374 15.902-1.176c3.397-.455 6.054-3.154 6.454-6.558l1.913-16.26c9.139-2.312 17.806-5.895 25.874-10.694l12.832 10.13c2.692 2.123 6.478 2.152 9.201.073zm-16.907-25.269c-2.561-2.022-6.134-2.155-8.838-.333-9.211 6.206-19.447 10.437-30.423 12.577-3.201.624-5.632 3.246-6.014 6.485l-1.839 15.635c-5.825.526-10.481.526-16.307 0l-1.839-15.635c-.381-3.24-2.812-5.861-6.014-6.485-10.977-2.14-21.212-6.371-30.423-12.577-2.704-1.822-6.277-1.688-8.838.333l-12.335 9.739c-2.246-1.874-4.221-3.67-6.041-5.49-1.819-1.819-3.616-3.794-5.49-6.041l9.739-12.335c2.021-2.56 2.156-6.133.333-8.838-6.206-9.211-10.437-19.446-12.577-30.423-.624-3.201-3.246-5.632-6.485-6.014l-15.636-1.839c-.263-2.914-.389-5.581-.389-8.154s.126-5.24.389-8.153l15.636-1.839c3.239-.381 5.861-2.812 6.485-6.014 2.14-10.977 6.371-21.212 12.577-30.423 1.822-2.705 1.688-6.278-.333-8.838l-9.739-12.336c1.874-2.246 3.671-4.221 5.49-6.041 1.818-1.818 3.793-3.615 6.041-5.489l12.335 9.739c2.561 2.021 6.133 2.155 8.838.333 9.211-6.206 19.446-10.438 30.422-12.577 3.202-.624 5.633-3.246 6.014-6.485l1.839-15.636c5.825-.526 10.481-.526 16.307 0l1.839 15.636c.381 3.24 2.812 5.862 6.014 6.485 10.976 2.139 21.211 6.371 30.422 12.577 2.705 1.822 6.278 1.688 8.838-.333l12.335-9.739c2.248 1.875 4.223 3.671 6.041 5.489 1.819 1.819 3.616 3.794 5.49 6.041l-9.739 12.336c-2.021 2.56-2.156 6.133-.333 8.838 6.206 9.21 10.438 19.446 12.577 30.423.624 3.201 3.246 5.632 6.485 6.014l15.636 1.839c.263 2.913.389 5.58.389 8.153s-.126 5.24-.389 8.154l-15.636 1.839c-3.239.381-5.861 2.812-6.485 6.014-2.14 10.977-6.371 21.212-12.577 30.423-1.822 2.705-1.688 6.278.333 8.838l9.739 12.335c-1.874 2.247-3.67 4.221-5.489 6.041-1.82 1.82-3.795 3.617-6.042 5.49z"/><path d="m273.367 219.629c3.737 1.783 8.215.199 9.998-3.54 1.784-3.738.199-8.215-3.54-9.998-21.13-10.081-46.431-5.749-62.957 10.777s-20.857 41.827-10.777 62.957c1.286 2.697 3.973 4.273 6.774 4.273 1.082 0 2.182-.236 3.224-.733 3.739-1.783 5.324-6.26 3.54-9.998-7.35-15.407-4.197-33.85 7.846-45.892s30.485-15.195 45.892-7.846z"/><path d="m295.922 228.648c-3.738 1.783-5.323 6.26-3.54 9.999 7.35 15.406 4.197 33.849-7.846 45.891s-30.485 15.194-45.892 7.846c-3.738-1.784-8.215-.199-9.998 3.54-1.784 3.738-.199 8.215 3.54 9.998 7.6 3.626 15.739 5.387 23.816 5.387 14.379 0 28.559-5.582 39.141-16.164 16.526-16.526 20.857-41.827 10.777-62.957-1.783-3.739-6.258-5.324-9.998-3.54z"/><path d="m59.306 317.133c1.464 1.464 3.384 2.197 5.303 2.197s3.839-.732 5.303-2.197c2.929-2.929 2.929-7.678 0-10.606l-43.021-43.021h85.567c4.142 0 7.5-3.358 7.5-7.5s-3.358-7.5-7.5-7.5h-85.567l43.021-43.021c2.929-2.929 2.929-7.678 0-10.606-2.929-2.93-7.678-2.929-10.606 0l-55.824 55.824c-1.407 1.406-2.197 3.314-2.197 5.303s.79 3.897 2.197 5.303z"/><path d="m452.705 194.879c-2.929-2.929-7.678-2.929-10.606 0-2.929 2.929-2.929 7.678 0 10.606l43.021 43.021h-85.567c-4.142 0-7.5 3.358-7.5 7.5s3.358 7.5 7.5 7.5h85.567l-43.021 43.021c-2.929 2.929-2.929 7.678 0 10.606 1.464 1.464 3.384 2.197 5.303 2.197s3.839-.732 5.303-2.197l55.824-55.824c1.407-1.406 2.197-3.314 2.197-5.303s-.79-3.897-2.197-5.303z"/><path d="m213.46 61.938 35.046-35.046v85.567c0 4.142 3.358 7.5 7.5 7.5s7.5-3.358 7.5-7.5v-85.567l35.046 35.046c1.464 1.464 3.384 2.197 5.303 2.197s3.839-.732 5.303-2.197c2.929-2.929 2.929-7.678 0-10.606l-47.849-47.85c-2.929-2.929-7.678-2.929-10.606 0l-47.849 47.849c-2.929 2.929-2.929 7.678 0 10.606 2.928 2.929 7.677 2.929 10.606.001z"/><path d="m298.552 450.074-35.046 35.046v-85.567c0-4.142-3.358-7.5-7.5-7.5s-7.5 3.358-7.5 7.5v85.567l-35.046-35.046c-2.929-2.929-7.678-2.929-10.606 0-2.929 2.929-2.929 7.678 0 10.606l47.849 47.849c1.464 1.464 3.384 2.197 5.303 2.197s3.839-.732 5.303-2.197l47.849-47.849c2.929-2.929 2.929-7.678 0-10.606s-7.678-2.928-10.606 0z"/></g></g></svg>